<svg width="41" height="35" viewBox="0 0 41 35" fill="none" xmlns="http://www.w3.org/2000/svg">
<path d="M40.5882 3.04199L21.2779 22.4203C20.8478 22.8518 20.1522 22.8518 19.7221 22.4203L0.41183 3.04199C-0.0183036 2.61055 -0.0183036 1.91289 0.41183 1.48145L1.06161 0.829688C1.49174 0.398242 2.18728 0.398242 2.61741 0.829688L20.5 18.776L38.3917 0.838867C38.8219 0.407422 39.5174 0.407422 39.9475 0.838867L40.5973 1.49062C41.0183 1.91289 41.0183 2.61055 40.5882 3.04199ZM40.5882 13.2314L39.9384 12.5797C39.5083 12.1482 38.8127 12.1482 38.3826 12.5797L20.5 30.526L2.60826 12.5889C2.17813 12.1574 1.48259 12.1574 1.05246 12.5889L0.402679 13.2406C-0.0274554 13.6721 -0.0274554 14.3697 0.402679 14.8012L19.7129 34.1795C20.1431 34.6109 20.8386 34.6109 21.2687 34.1795L40.579 14.8012C41.0183 14.3605 41.0183 13.6629 40.5882 13.2314Z" fill="white"/>
</svg>
