<svg width="25" height="25" viewBox="0 0 25 25" fill="none" xmlns="http://www.w3.org/2000/svg">
<g clip-path="url(#clip0)">
<path d="M12.5 0.390533C5.81055 0.390533 0.390625 5.81046 0.390625 12.4999C0.390625 19.1894 5.81055 24.6093 12.5 24.6093C19.1895 24.6093 24.6094 19.1894 24.6094 12.4999C24.6094 5.81046 19.1895 0.390533 12.5 0.390533ZM23.0469 12.4999C23.0469 18.2958 18.3545 23.0468 12.5 23.0468C6.7041 23.0468 1.95312 18.3544 1.95312 12.4999C1.95312 6.70401 6.64551 1.95303 12.5 1.95303C18.2959 1.95303 23.0469 6.64542 23.0469 12.4999ZM15.7764 16.8114L11.8115 13.9306C11.6602 13.8183 11.5723 13.6425 11.5723 13.4569V5.66397C11.5723 5.34171 11.8359 5.07803 12.1582 5.07803H12.8418C13.1641 5.07803 13.4277 5.34171 13.4277 5.66397V12.8075L16.8701 15.3124C17.1338 15.5028 17.1875 15.869 16.9971 16.1327L16.5967 16.6845C16.4062 16.9433 16.04 17.0019 15.7764 16.8114Z" fill="#FD7230"/>
</g>
<defs>
<clipPath id="clip0">
<rect width="25" height="25" fill="white"/>
</clipPath>
</defs>
</svg>
