<svg width="19" height="25" viewBox="0 0 19 25" fill="none" xmlns="http://www.w3.org/2000/svg">
<g clip-path="url(#clip0)">
<path d="M16.4062 3.12491H12.0801C12.0996 2.99796 12.1094 2.86612 12.1094 2.73428C12.1094 1.22549 10.8838 -9.15527e-05 9.375 -9.15527e-05C7.86621 -9.15527e-05 6.64062 1.22549 6.64062 2.73428C6.64062 2.86612 6.65039 2.99796 6.66992 3.12491H2.34375C1.0498 3.12491 0 4.17471 0 5.46866V22.6562C0 23.9501 1.0498 24.9999 2.34375 24.9999H16.4062C17.7002 24.9999 18.75 23.9501 18.75 22.6562V5.46866C18.75 4.17471 17.7002 3.12491 16.4062 3.12491ZM9.375 1.56241C10.0244 1.56241 10.5469 2.08487 10.5469 2.73428C10.5469 3.3837 10.0244 3.90616 9.375 3.90616C8.72559 3.90616 8.20312 3.3837 8.20312 2.73428C8.20312 2.08487 8.72559 1.56241 9.375 1.56241ZM17.1875 22.6562C17.1875 23.0858 16.8359 23.4374 16.4062 23.4374H2.34375C1.91406 23.4374 1.5625 23.0858 1.5625 22.6562V5.46866C1.5625 5.03897 1.91406 4.68741 2.34375 4.68741H4.6875V5.66397C4.6875 5.98624 4.95117 6.24991 5.27344 6.24991H13.4766C13.7988 6.24991 14.0625 5.98624 14.0625 5.66397V4.68741H16.4062C16.8359 4.68741 17.1875 5.03897 17.1875 5.46866V22.6562ZM5.46875 16.0155C4.81934 16.0155 4.29688 16.538 4.29688 17.1874C4.29688 17.8368 4.81934 18.3593 5.46875 18.3593C6.11816 18.3593 6.64062 17.8368 6.64062 17.1874C6.64062 16.538 6.11816 16.0155 5.46875 16.0155ZM13.6719 16.4062H8.20312C7.98828 16.4062 7.8125 16.5819 7.8125 16.7968V17.578C7.8125 17.7929 7.98828 17.9687 8.20312 17.9687H13.6719C13.8867 17.9687 14.0625 17.7929 14.0625 17.578V16.7968C14.0625 16.5819 13.8867 16.4062 13.6719 16.4062ZM6.16211 13.203L9.29688 10.0976C9.39941 9.99503 9.39941 9.82901 9.29688 9.72647L8.68164 9.10635C8.5791 9.00381 8.41309 9.00381 8.31055 9.10635L5.98633 11.411L4.98047 10.3905C4.87793 10.288 4.71191 10.288 4.60938 10.3905L3.98926 11.0058C3.88672 11.1083 3.88672 11.2743 3.98926 11.3769L5.80078 13.203C5.89355 13.3056 6.05957 13.3056 6.16211 13.203ZM13.6719 11.7187H9.88281L8.30566 13.2812H13.6719C13.8867 13.2812 14.0625 13.1054 14.0625 12.8905V12.1093C14.0625 11.8944 13.8867 11.7187 13.6719 11.7187Z" fill="#FD7230"/>
</g>
<defs>
<clipPath id="clip0">
<rect width="18.75" height="25" fill="white"/>
</clipPath>
</defs>
</svg>
