<svg width="22" height="25" viewBox="0 0 22 25" fill="none" xmlns="http://www.w3.org/2000/svg">
<g clip-path="url(#clip0)">
<path d="M10.9551 12.4999C14.4127 12.4999 17.2151 9.70206 17.2151 6.24991C17.2151 2.79776 14.4127 -9.15527e-05 10.9551 -9.15527e-05C7.49737 -9.15527e-05 4.69502 2.79776 4.69502 6.24991C4.69502 9.70206 7.49737 12.4999 10.9551 12.4999ZM10.9551 1.56241C13.5422 1.56241 15.6501 3.6669 15.6501 6.24991C15.6501 8.83292 13.5422 10.9374 10.9551 10.9374C8.3679 10.9374 6.26003 8.83292 6.26003 6.24991C6.26003 3.6669 8.3679 1.56241 10.9551 1.56241ZM15.4496 14.8534L13.508 21.5819L11.85 16.6161L13.0727 15.3954C13.5667 14.9023 13.2145 14.0624 12.5201 14.0624H9.39005C8.69069 14.0624 8.34345 14.9023 8.8374 15.3954L10.0601 16.6161L8.40214 21.5819L6.46055 14.8583C2.88059 14.9169 0 17.8222 0 21.4062V22.6562C0 23.9501 1.05149 24.9999 2.34751 24.9999H19.5626C20.8586 24.9999 21.9101 23.9501 21.9101 22.6562V21.4062C21.9101 17.8222 19.0295 14.9169 15.4496 14.8534ZM2.34751 23.4374C1.91713 23.4374 1.56501 23.0858 1.56501 22.6562V21.4062C1.56501 19.1015 3.16914 17.1337 5.32592 16.5771L7.31152 23.4374H2.34751ZM9.43406 23.4374L10.9551 18.8769L12.476 23.4374H9.43406ZM20.3451 22.6562C20.3451 23.0858 19.993 23.4374 19.5626 23.4374H14.5986L16.5793 16.5771C18.7361 17.1337 20.3402 19.1015 20.3402 21.4062V22.6562H20.3451Z" fill="#FD7230"/>
</g>
<defs>
<clipPath id="clip0">
<rect width="21.9101" height="25" fill="white"/>
</clipPath>
</defs>
</svg>
