<svg width="32" height="25" viewBox="0 0 32 25" fill="none" xmlns="http://www.w3.org/2000/svg">
<g clip-path="url(#clip0)">
<path d="M26.6265 10.9374C28.7899 10.9374 30.5422 9.18936 30.5422 7.03116C30.5422 4.87296 28.7899 3.12491 26.6265 3.12491C24.4631 3.12491 22.7108 4.87296 22.7108 7.03116C22.7108 9.18936 24.4631 10.9374 26.6265 10.9374ZM26.6265 4.68741C27.9236 4.68741 28.9759 5.73721 28.9759 7.03116C28.9759 8.3251 27.9236 9.37491 26.6265 9.37491C25.3294 9.37491 24.2771 8.3251 24.2771 7.03116C24.2771 5.73721 25.3294 4.68741 26.6265 4.68741ZM15.6627 12.4999C18.6924 12.4999 21.1446 10.0536 21.1446 7.03116C21.1446 4.0087 18.6924 1.56241 15.6627 1.56241C12.6329 1.56241 10.1807 4.0087 10.1807 7.03116C10.1807 10.0536 12.6329 12.4999 15.6627 12.4999ZM15.6627 3.12491C17.8212 3.12491 19.5783 4.87784 19.5783 7.03116C19.5783 9.18448 17.8212 10.9374 15.6627 10.9374C13.5041 10.9374 11.747 9.18448 11.747 7.03116C11.747 4.87784 13.5041 3.12491 15.6627 3.12491ZM27.6054 12.4999H25.6476C24.9036 12.4999 24.2135 12.7343 23.6359 13.1298C24.096 13.4423 24.512 13.8085 24.8791 14.2235C25.119 14.121 25.3784 14.0624 25.6476 14.0624H27.6054C28.7899 14.0624 29.759 15.1122 29.759 16.4062C29.759 16.8358 30.1114 17.1874 30.5422 17.1874C30.9729 17.1874 31.3253 16.8358 31.3253 16.4062C31.3253 14.2528 29.6562 12.4999 27.6054 12.4999ZM4.6988 10.9374C6.8622 10.9374 8.61446 9.18936 8.61446 7.03116C8.61446 4.87296 6.8622 3.12491 4.6988 3.12491C2.53539 3.12491 0.783133 4.87296 0.783133 7.03116C0.783133 9.18936 2.53539 10.9374 4.6988 10.9374ZM4.6988 4.68741C5.99586 4.68741 7.04819 5.73721 7.04819 7.03116C7.04819 8.3251 5.99586 9.37491 4.6988 9.37491C3.40173 9.37491 2.3494 8.3251 2.3494 7.03116C2.3494 5.73721 3.40173 4.68741 4.6988 4.68741ZM19.5832 13.4765C17.9484 13.4765 17.5422 14.0624 15.6627 14.0624C13.7831 14.0624 13.3769 13.4765 11.7421 13.4765C9.96536 13.4765 8.23758 14.2675 7.2244 15.7665C6.61747 16.6649 6.26506 17.744 6.26506 18.9062V21.0937C6.26506 22.3876 7.31739 23.4374 8.61446 23.4374H22.7108C24.0079 23.4374 25.0602 22.3876 25.0602 21.0937V18.9062C25.0602 17.744 24.7078 16.6649 24.1009 15.7665C23.0877 14.2675 21.3599 13.4765 19.5832 13.4765ZM23.494 21.0937C23.494 21.5233 23.1416 21.8749 22.7108 21.8749H8.61446C8.18373 21.8749 7.83133 21.5233 7.83133 21.0937V18.9062C7.83133 18.0956 8.07116 17.3095 8.52146 16.6405C9.19691 15.6396 10.401 15.039 11.7372 15.039C13.0783 15.039 13.558 15.6249 15.6627 15.6249C17.7673 15.6249 18.247 15.039 19.5832 15.039C20.9194 15.039 22.1235 15.6396 22.7989 16.6405C23.2492 17.3095 23.4891 18.0956 23.4891 18.9062V21.0937H23.494ZM7.68938 13.1298C7.10693 12.7343 6.41679 12.4999 5.67771 12.4999H3.71988C1.66905 12.4999 0 14.2528 0 16.4062C0 16.8358 0.35241 17.1874 0.783133 17.1874C1.21386 17.1874 1.56627 16.8358 1.56627 16.4062C1.56627 15.1122 2.53539 14.0624 3.71988 14.0624H5.67771C5.94691 14.0624 6.20633 14.121 6.44616 14.2235C6.81325 13.8085 7.23419 13.4423 7.68938 13.1298Z" fill="#FD7230"/>
</g>
<defs>
<clipPath id="clip0">
<rect width="31.3253" height="25" fill="white"/>
</clipPath>
</defs>
</svg>
